# xmcd
#
# Track frame offsets: 
#        150
#        17425
#        30040
#        46760
#        59182
#        88000
#        102157
#        114927
#        127779
#        140877
#        156537
#        174947
#        186062
#        202395
#
# Disc length: 2895 seconds
#
# Revision: 11
# Processed by: cddbd v1.5.2PL0 Copyright (c) Steve Scherf et al.
# Submitted via: ExactAudioCopy v1.0b3
#
DISCID=b80b4d0e
DTITLE=Bruno e Marrone - Acústico
DYEAR=2000
DGENRE=Sertanejo
TTITLE0=Vida vazia
TTITLE1=Vivendo de passado
TTITLE2=Agarrada em mim
TTITLE3=Fio de cabelo
TTITLE4=Fruto especial - Só sei te amar
TTITLE5=Passou da conta
TTITLE6=Feriado nacional
TTITLE7=Dormi na praça
TTITLE8=24 horas de amor
TTITLE9=Acorrentado em você
TTITLE10=Queremos mais
TTITLE11=Favo de mel
TTITLE12=Esta noite eu queria que o mundo acabasse
TTITLE13=Programa de fim-de-semana
EXTD=DJ Jemelly Rustom
EXTT0=DJ Jemelly Rustom
EXTT1=DJ Jemelly Rustom
EXTT2=DJ Jemelly Rustom
EXTT3=DJ Jemelly Rustom
EXTT4=DJ Jemelly Rustom
EXTT5=DJ Jemelly Rustom
EXTT6=DJ Jemelly Rustom
EXTT7=DJ Jemelly Rustom
EXTT8=DJ Jemelly Rustom
EXTT9=DJ Jemelly Rustom
EXTT10=DJ Jemelly Rustom
EXTT11=DJ Jemelly Rustom
EXTT12=DJ Jemelly Rustom
EXTT13=DJ Jemelly Rustom
PLAYORDER=
